<svg xmlns="http://www.w3.org/2000/svg" viewBox="0 0 32 32" role="img" aria-label="DebiasDaily">
  <defs>
    <linearGradient id="bg" x1="0%" y1="0%" x2="100%" y2="100%">
      <stop offset="0%" stop-color="#a78bfa"/>
      <stop offset="100%" stop-color="#60a5fa"/>
    </linearGradient>
  </defs>
  <!-- Full circle gradient — matches og-image icon -->
  <circle cx="16" cy="16" r="16" fill="url(#bg)"/>
  <!-- Top-down brain outline (same geometry as app Brain icon / og-image) -->
  <g
    transform="translate(4 4)"
    fill="none"
    stroke="#ffffff"
    stroke-width="1.75"
    stroke-linecap="round"
    stroke-linejoin="round"
  >
    <path d="M12 5a3 3 0 1 0-5.997.125 4 4 0 0 0-2.526 5.77 4 4 0 0 0 .556 6.588 4 4 0 0 0 7.632 2.88 4 4 0 0 0 .88-.88 4 4 0 0 0 7.632 2.88 4 4 0 0 0 .556-6.588 4 4 0 0 0-2.526-5.77A3 3 0 1 0 12 5z"/>
    <path d="M12 5v14"/>
    <path d="M8 9.5c1 .8 2.2 1.2 3.5 1.2"/>
    <path d="M16 9.5c-1 .8-2.2 1.2-3.5 1.2"/>
    <path d="M7.5 14c1 .6 2.2.9 3.5.9"/>
    <path d="M16.5 14c-1 .6-2.2.9-3.5.9"/>
  </g>
</svg>
